<?xml version="1.0" standalone="no"?>
<!DOCTYPE svg PUBLIC "-//W3C//DTD SVG 20010904//EN"
 "http://www.w3.org/TR/2001/REC-SVG-20010904/DTD/svg10.dtd">
<svg version="1.0" xmlns="http://www.w3.org/2000/svg"
 width="550.000000pt" height="550.000000pt" viewBox="0 0 550.000000 550.000000"
 preserveAspectRatio="xMidYMid meet">

<g transform="translate(0.000000,550.000000) scale(0.100000,-0.100000)"
fill="#000000" stroke="none">
<path d="M4931 5134 c-171 -46 -325 -205 -360 -372 -18 -86 -13 -156 24 -342
57 -280 57 -438 4 -655 -26 -107 -115 -284 -184 -368 -84 -102 -236 -208 -255
-177 -4 6 -13 37 -19 68 -19 87 -101 248 -168 326 -150 179 -400 304 -645 322
l-87 7 -32 45 c-196 273 -526 433 -813 393 -170 -24 -317 -95 -444 -215 -94
-89 -159 -175 -213 -280 l-42 -81 -106 -34 c-337 -109 -568 -310 -657 -576
-73 -219 -23 -432 143 -606 l74 -77 -40 -32 c-135 -109 -201 -317 -153 -477
70 -231 286 -378 586 -399 l91 -7 45 -60 c53 -70 173 -192 236 -239 24 -18 44
-36 44 -40 0 -17 -153 -30 -290 -25 -163 6 -239 23 -447 101 -160 60 -246 78
-368 79 -146 0 -261 -41 -382 -140 -50 -40 -133 -145 -133 -167 0 -9 12 -23
26 -32 l26 -17 81 86 c95 101 171 149 267 171 138 32 209 21 490 -74 329 -112
515 -127 770 -64 l65 16 100 -50 c103 -52 230 -94 338 -112 240 -39 469 56
551 228 l29 60 55 -19 c219 -75 499 -61 710 36 158 73 300 197 380 329 81 133
132 306 132 446 0 75 -32 223 -64 294 -31 69 -88 166 -130 220 l-30 39 18 81
c11 47 20 142 23 228 l5 147 62 29 c190 90 341 282 425 537 75 232 79 440 16
755 -30 150 -36 198 -32 254 12 139 105 267 241 332 115 55 214 42 280 -36 32
-38 40 -69 33 -120 -8 -63 -39 -95 -135 -141 -48 -22 -100 -53 -115 -67 -71
-66 -91 -172 -63 -323 9 -47 16 -118 16 -158 0 -40 5 -81 10 -92 12 -21 50
-25 68 -7 17 17 15 156 -3 251 -37 195 -12 255 140 326 48 23 92 52 111 73
123 140 56 348 -129 403 -62 18 -106 18 -176 -1z m-2276 -859 c77 -20 167 -62
247 -116 70 -47 231 -206 222 -220 -3 -5 -16 -9 -28 -9 -85 0 -339 -92 -446
-161 l-58 -37 -88 30 c-49 16 -129 39 -179 49 -108 24 -354 35 -440 21 -33 -6
-64 -7 -69 -2 -10 10 61 122 131 206 111 133 283 230 458 257 50 8 186 -2 250
-18z m587 -507 c26 -46 82 -150 126 -233 91 -172 137 -250 165 -282 11 -13 18
-26 15 -29 -4 -3 -57 2 -120 11 l-113 17 -55 52 c-129 122 -298 242 -467 332
-51 27 -91 54 -90 59 9 29 233 117 355 139 138 25 132 28 184 -66z m172 67
c68 -9 188 -53 266 -97 184 -104 298 -242 366 -442 28 -81 30 -112 8 -120 -26
-10 -204 -7 -292 6 l-84 11 -83 126 c-72 110 -285 501 -285 524 0 5 12 6 28 3
15 -2 49 -8 76 -11z m-1104 -109 c111 -27 180 -49 180 -57 0 -5 -21 -28 -47
-51 -72 -64 -250 -259 -289 -316 -1 -2 -65 -14 -141 -27 -76 -14 -174 -36
-218 -49 -44 -14 -83 -26 -86 -26 -12 0 -19 67 -20 176 0 84 6 132 25 208 34
133 41 142 118 154 91 15 398 7 478 -12z m-660 -36 c0 -6 -10 -48 -22 -93 -18
-65 -22 -110 -23 -217 0 -74 3 -154 7 -177 l8 -41 -70 -47 c-77 -51 -138 -115
-181 -190 -40 -69 -57 -126 -72 -234 -11 -83 -15 -94 -39 -108 -25 -16 -27
-15 -60 11 -95 79 -179 214 -199 323 -27 145 27 323 141 468 90 113 214 199
390 271 115 47 120 49 120 34z m1089 -126 c133 -69 236 -135 339 -216 70 -56
78 -73 30 -64 -118 21 -430 38 -615 33 -112 -3 -203 -1 -203 3 0 10 137 165
186 211 57 52 117 99 128 99 5 0 66 -30 135 -66z m336 -364 c123 -16 186 -28
199 -39 29 -25 134 -170 172 -238 37 -66 94 -212 94 -241 0 -12 -39 -37 -127
-82 -195 -100 -295 -170 -410 -286 l-103 -104 -122 36 c-367 107 -646 270
-840 493 -32 36 -58 71 -58 77 0 5 16 26 36 45 19 18 88 102 151 184 64 83
121 155 125 160 15 17 134 23 423 20 221 -2 318 -7 460 -25z m-1061 -82 c-82
-107 -178 -218 -190 -218 -14 0 -85 154 -87 189 -2 24 4 28 64 48 84 28 253
62 257 51 2 -4 -18 -36 -44 -70z m1526 12 c36 -6 72 -13 81 -16 8 -2 59 -56
113 -120 l98 -116 -28 -29 c-26 -27 -166 -129 -177 -129 -3 0 -15 30 -27 68
-28 87 -79 189 -141 280 -27 40 -49 75 -49 78 0 3 15 3 33 0 17 -3 61 -11 97
-16z m554 -91 c6 -44 -7 -209 -20 -257 -4 -13 -10 -22 -14 -20 -11 4 -280 309
-280 317 0 3 69 6 154 6 l154 0 6 -46z m-2434 -6 c7 -21 31 -75 53 -121 l41
-83 -30 -25 c-56 -47 -160 -103 -247 -133 -49 -17 -90 -31 -93 -31 -9 0 -3 59
11 115 22 82 52 139 105 198 42 47 126 116 142 117 3 0 12 -17 18 -37z m2309
-308 c33 -38 61 -75 61 -83 0 -22 -65 -156 -101 -209 -61 -88 -173 -193 -206
-193 -5 0 -15 45 -21 100 -10 88 -35 226 -48 271 -3 11 18 30 68 62 40 25 96
66 123 91 28 24 53 41 56 38 4 -4 34 -38 68 -77z m-2149 15 c0 -18 185 -202
263 -261 173 -130 354 -219 618 -304 l147 -47 -50 -81 c-28 -45 -54 -86 -58
-90 -3 -4 -56 25 -117 66 -214 143 -345 195 -740 292 -225 56 -431 121 -480
153 -6 4 -13 23 -15 42 l-3 34 101 37 c117 42 226 97 275 139 34 30 59 38 59
20z m1762 -205 c14 -50 48 -268 48 -307 0 -35 -2 -37 -47 -52 -80 -26 -192
-39 -278 -32 -91 8 -276 35 -288 43 -11 7 92 112 163 167 96 74 352 218 379
213 8 -1 18 -15 23 -32z m576 -57 c55 -99 81 -161 98 -238 52 -242 -38 -498
-239 -686 -211 -197 -529 -266 -825 -180 -46 13 -85 26 -87 28 -2 1 -6 33 -10
70 l-7 66 52 -15 c36 -10 79 -14 136 -11 70 4 94 10 157 41 170 84 287 289
287 503 l0 73 68 44 c118 77 215 190 283 330 13 26 28 47 34 47 6 0 30 -33 53
-72z m-2889 -42 c36 -23 40 -31 56 -103 30 -136 115 -377 179 -508 34 -69 58
-129 53 -132 -11 -7 -102 6 -166 24 -86 23 -170 70 -231 129 -133 127 -162
275 -86 440 22 47 131 174 150 174 4 0 24 -11 45 -24z m228 -106 c86 -32 216
-68 453 -125 185 -45 324 -92 434 -147 83 -41 230 -133 278 -173 l26 -22 -36
-60 c-77 -123 -86 -134 -107 -128 -124 35 -188 47 -286 54 -119 9 -175 5 -427
-24 -104 -12 -147 -14 -156 -6 -23 19 -133 242 -175 356 -37 102 -91 276 -91
296 0 12 -1 13 87 -21z m1759 -270 c120 -11 229 -4 315 20 68 20 70 18 63 -57
-17 -180 -117 -334 -259 -400 -77 -35 -171 -36 -257 -4 -48 19 -78 42 -183
148 l-125 126 46 76 c25 42 57 90 69 107 l24 31 93 -18 c51 -10 147 -23 214
-29z m-380 -362 c81 -85 120 -148 131 -212 8 -48 -3 -47 -112 15 -49 28 -125
69 -168 91 -51 26 -75 43 -70 51 3 7 28 45 55 85 41 60 52 71 66 63 10 -5 54
-47 98 -93z m-491 -72 c39 -8 81 -19 94 -24 25 -9 25 -9 -24 -61 -69 -73 -189
-162 -286 -210 -45 -23 -87 -41 -93 -41 -22 0 -174 130 -255 217 -45 48 -81
90 -81 94 0 3 69 14 153 23 83 10 159 19 167 21 34 9 260 -4 325 -19z m340
-131 c66 -36 153 -82 193 -103 70 -35 73 -38 68 -66 -14 -66 -100 -150 -194
-188 -81 -32 -273 -32 -383 -1 -99 29 -232 90 -224 103 3 5 10 10 15 10 15 0
132 71 190 115 30 24 89 77 130 119 41 42 77 76 80 76 3 0 59 -30 125 -65z"/>
<path d="M2493 2890 c-37 -15 -53 -61 -53 -150 0 -84 15 -132 45 -144 34 -13
72 -6 93 17 32 34 42 78 35 160 -5 61 -11 76 -34 99 -28 29 -48 33 -86 18z"/>
<path d="M2839 2871 c-28 -29 -29 -32 -29 -131 0 -94 2 -103 25 -125 33 -34
83 -34 116 1 21 22 24 37 27 108 5 97 -13 151 -53 166 -41 15 -54 12 -86 -19z"/>
</g>
</svg>
