<?xml version="1.0" encoding="utf-8" ?><svg xmlns="http://www.w3.org/2000/svg" xmlns:xlink="http://www.w3.org/1999/xlink" width="1984" height="1984" viewBox="0 0 1984 1984"><defs><linearGradient id="gradient_0" gradientUnits="userSpaceOnUse" x1="505.67181" y1="528.27466" x2="700.50739" y2="244.23579"><stop offset="0" stop-color="#E77B39"/><stop offset="1" stop-color="#F89B51"/></linearGradient></defs><path fill="url(#gradient_0)" transform="scale(1.9375 1.9375)" d="M407.547 85.2116C416.675 75.6911 429.219 70.9847 442.132 71.0865C499.897 71.5417 554.881 113.754 582.868 162.382C586.618 168.897 590.116 175.731 594.013 181.928C605.165 186.711 616.858 193.74 626.75 197.799C630.01 196.372 635.311 194.8 638.796 193.98C668.683 187.62 682.858 204.338 687.766 232.427C687.956 234.121 688.447 239.346 688.832 240.704C688.733 243.651 688.909 278.719 689.519 279.878C688.856 283.11 689.414 288.801 689.518 292.431C689.831 294.862 690.471 298.658 690.325 300.991C691.405 307.062 693.496 321.138 696.546 326.146C697.146 331.34 702.495 342.893 705.362 347.38L707.572 351.368C708.546 353.203 710.406 357.053 711.705 358.419C718.272 372.936 720.993 380.06 718.296 395.948C717.908 400.374 717.742 401.328 715.151 405.134C714.568 407.229 713.425 411.734 712.648 413.515C698.342 444.616 669.515 464.715 639.591 479.311C635.921 481.102 627.832 484.142 630.338 488.899C633.032 494.014 641.705 498.171 646.527 503.198C659.134 516.34 694.288 562.628 708.631 568.485C709.383 568.795 710.145 569.078 710.916 569.335C726.889 566.695 741.47 552.131 753.743 542.165C755.613 540.646 760.337 536.363 762.224 535.736C763.32 534.437 763.719 534.065 763.757 532.253C764.1 515.918 764.599 499.029 769.993 483.432C773.133 474.352 781.208 459.753 793.008 465.024C796.671 466.66 798.487 470.474 799.857 474.022L800.007 474.568C801.015 478.455 801.375 482.481 801.072 486.485C800.462 495.214 795.66 507.788 805.201 513.303C811.139 516.735 821.216 517.123 827.923 516.551C834.883 514.921 841.611 513.121 847.707 509.216C860.609 500.952 864.881 490.707 881.284 489.261C889.694 491.716 893.023 495.571 892.451 504.608C888.846 519.444 880.444 529.196 868.524 538.578C878.295 536.491 891.247 533.559 892.817 547.108C893.463 551.751 890.236 557.965 887.351 561.603C874.817 577.409 852.676 586.346 833.177 588.924C819.231 590.768 807.661 589.732 794.125 588.306C770.555 603.227 729.135 635.325 700.771 629.288C685.12 625.958 664.992 608.446 653.307 597.432C648.239 578.789 644.487 559.541 639.583 540.812C637.483 532.794 635.752 523.524 633.054 515.775C590.497 540.055 528.768 529.743 486.02 510.44C444.04 491.483 392.818 454.765 375.715 410.612C370.663 396.595 368.925 390.889 365.443 376.109C358.852 348.892 361.456 306.881 368.72 280.046C373.289 263.166 378.785 248.085 381.653 230.361C385.862 204.342 385.339 179.551 386.086 153.391C386.752 130.043 389.581 102.039 407.547 85.2116Z"/><path fill="#FBBB77" transform="scale(1.9375 1.9375)" d="M638.796 193.98C668.683 187.62 682.858 204.338 687.766 232.427C687.956 234.121 688.447 239.346 688.832 240.704C688.733 243.651 688.909 278.719 689.519 279.878C688.856 283.11 689.414 288.801 689.518 292.431C686.093 294.268 685.371 303.492 684.728 307.244C675.085 363.501 628.435 359.14 595.023 323.871C582.351 310.496 570.638 295.308 560.595 279.262C558.052 275.199 552.527 269.566 552.419 264.746C552.805 261.201 545.627 254.084 543.045 251.088C524.877 230.005 502.783 212.135 473.753 210.713C457.032 209.894 438.4 215.875 425.766 227.259C424.477 225.822 423.154 223.892 421.999 222.308C423.16 221.027 424.988 219.474 426.355 218.368C442.259 205.481 462.672 199.52 483.011 201.825C514.986 205.433 538.738 227.559 557.071 252.327C562.097 259.118 566.373 256.874 571.989 252.267C574.52 244.764 577.707 244.627 584.4 246.24C587.159 247.146 589.048 247.87 591.712 249.002C594.783 239.358 598.828 243.192 604.525 234.021C613.98 230.63 614.111 231.807 622.649 225.145C634.315 230.632 635.709 225.973 635.477 215.323C632.462 215.716 625.97 216.485 623.907 213.872L624.095 212.712C626.256 210.438 635.101 208.15 637.93 207.793C636.669 205.475 629.055 199.63 626.75 197.799C630.01 196.372 635.311 194.8 638.796 193.98Z"/><path fill="#EC853F" transform="scale(1.9375 1.9375)" d="M626.75 197.799C630.01 196.372 635.311 194.8 638.796 193.98C641.769 195.55 648.256 196.886 651.99 197.927C663.301 201.081 669.803 210.554 673.634 221.051C681.194 245.895 680.159 311.058 670.283 333.576C671.427 325.709 672.936 318.185 672.983 310.172C673.191 274.617 663.111 233.693 637.93 207.793C636.669 205.475 629.055 199.63 626.75 197.799Z"/><path fill="#F59A54" transform="scale(1.9375 1.9375)" d="M571.989 252.267C574.52 244.764 577.707 244.627 584.4 246.24C582.599 246.361 581.226 246.201 579.874 247.294C580.204 250.474 602.739 259.48 600.276 267.355C598.273 267.617 595.958 270.639 593.551 271.319C586.159 273.373 579.862 268.311 576.368 262.193C574.975 259.754 573.987 255.666 571.596 254.596L571.989 252.267Z"/><path fill="#EC853F" transform="scale(1.9375 1.9375)" d="M571.596 254.596C573.987 255.666 574.975 259.754 576.368 262.193C579.862 268.311 586.159 273.373 593.551 271.319C595.958 270.639 598.273 267.617 600.276 267.355C595.82 284.052 580.179 272.498 572.904 265.131C571.71 260.491 571.374 259.189 571.596 254.596Z"/><defs><linearGradient id="gradient_1" gradientUnits="userSpaceOnUse" x1="641.03979" y1="255.32654" x2="643.99652" y2="235.74451"><stop offset="0" stop-color="#E97934"/><stop offset="1" stop-color="#FCA359"/></linearGradient></defs><path fill="url(#gradient_1)" transform="scale(1.9375 1.9375)" d="M634.626 234.207C639.55 238.273 642.296 237.01 647.643 236.349C654.472 235.505 654.64 250.667 651.313 254.995C643.648 259.691 636.442 255.278 633.387 247.473C631.38 242.35 632.395 238.879 634.626 234.207Z"/><path fill="#F59A54" transform="scale(1.9375 1.9375)" d="M598.761 290.029C608.476 286.099 616.012 292.867 615.575 302.893C607.598 312.061 591.719 300.393 598.761 290.029Z"/><path fill="#EC853F" transform="scale(1.9375 1.9375)" d="M615.575 302.893C607.598 312.061 591.719 300.393 598.761 290.029C602.228 302.004 602.928 302.787 615.575 302.893Z"/><path fill="#F59A54" transform="scale(1.9375 1.9375)" d="M605.169 270.571C607.334 271.316 609.602 273.317 612.1 274.286C615.189 275.484 617.072 275.393 620.328 275.566C622.638 279.914 624.805 284.327 621.647 288.712C615.721 291.915 608.582 288.268 605.651 282.636C603.306 278.13 603.732 275.258 605.169 270.571Z"/><path fill="#F59A54" transform="scale(1.9375 1.9375)" d="M651.099 284.971C650.338 282.495 649.958 279.695 650.921 277.234C652.328 275.817 651.517 276.236 653.392 275.839C654.524 276.281 655.575 276.689 656.694 277.175L663.692 276.041C664.216 278.742 665.409 283.805 664.865 286.403C661.124 294.553 654.456 291.864 651.099 284.971Z"/><path fill="#EC853F" transform="scale(1.9375 1.9375)" d="M651.099 284.971C653.609 285.192 655.915 286.78 658.204 288.022C659.921 287.147 662.145 285.799 663.981 285.599L664.865 286.403C661.124 294.553 654.456 291.864 651.099 284.971Z"/><path fill="#F59A54" transform="scale(1.9375 1.9375)" d="M653.579 303.646C656.595 303.257 664.528 301.476 666.278 304.412C667.351 308.212 666.807 310.529 666.283 314.415C660.08 320.352 654.321 319.521 653.371 310.323C653.551 308.74 653.534 305.37 653.579 303.646Z"/><path fill="#EC853F" transform="scale(1.9375 1.9375)" d="M653.371 310.323C655.808 312.032 659.138 314.869 662.231 313.549C665.55 310.29 664.537 307.984 666.278 304.412C667.351 308.212 666.807 310.529 666.283 314.415C660.08 320.352 654.321 319.521 653.371 310.323Z"/><path fill="#F59A54" transform="scale(1.9375 1.9375)" d="M640.083 327.709C639.996 325.194 639.639 325.755 640.786 324.001C645.534 321.37 654.548 321.416 656.47 327.666C656.4 328.177 656.314 328.687 656.212 329.193C654.313 338.733 643.97 335.163 640.083 327.709Z"/><path fill="#EC853F" transform="scale(1.9375 1.9375)" d="M640.083 327.709L640.499 325.362L641.2 325.089C644.912 327.511 646.385 332.547 651.022 331.628C653.391 331.159 654.46 328.094 656.47 327.666C656.4 328.177 656.314 328.687 656.212 329.193C654.313 338.733 643.97 335.163 640.083 327.709Z"/><path fill="#EC853F" transform="scale(1.9375 1.9375)" d="M625.533 267.345C627.726 270.111 628.624 273.58 632.671 276.409C634.634 277.78 636.473 279.23 639.125 278.845C643.915 278.15 643.486 274.482 645.576 271.688C646.327 272.91 646.277 274.147 646.413 275.606C644.076 285.461 636.256 285.778 629.436 279.223C625.765 275.695 625.361 272.166 625.533 267.345Z"/><path fill="#EC853F" transform="scale(1.9375 1.9375)" d="M617.48 314.362C618.52 315.572 619.396 318.111 620.413 319.653C624.216 325.417 627.14 321.458 631.652 322.452C632.31 323.909 632.048 323.555 631.439 325.575C629.072 326.871 626.979 327.499 624.247 326.862C621.863 326.325 619.796 324.852 618.511 322.774C616.773 319.968 616.789 317.44 617.48 314.362Z"/><path fill="#F59A54" transform="scale(1.9375 1.9375)" d="M628.797 302.556L634.649 302.553C637.025 302.57 637.846 302.653 639.407 304.254C639.759 305.951 639.513 306.15 638.925 307.781C633.181 309.087 630.11 308.91 628.797 302.556Z"/><path fill="#2BA29F" transform="scale(1.9375 1.9375)" d="M407.547 85.2116C416.675 75.6911 429.219 70.9847 442.132 71.0865C499.897 71.5417 554.881 113.754 582.868 162.382C586.618 168.897 590.116 175.731 594.013 181.928C597.005 189.151 612.689 224.64 607.249 230.601C599.565 230.487 574.831 185.193 570.19 177.884C564.952 169.607 559.301 161.597 553.26 153.886C525.551 118.924 479.387 84.3241 432.925 82.1622C425.212 81.8033 415.289 83.8844 407.547 85.2116Z"/><defs><linearGradient id="gradient_2" gradientUnits="userSpaceOnUse" x1="536.27362" y1="167.5957" x2="560.43842" y2="124.0219"><stop offset="0" stop-color="#2BBCB6"/><stop offset="1" stop-color="#81CCC7"/></linearGradient></defs><path fill="url(#gradient_2)" transform="scale(1.9375 1.9375)" d="M502.354 91.2743C538.293 110.474 561.563 134.912 580.47 171.11C585.892 181.491 590.195 190.073 594.047 201.284C588.608 193.655 583.497 182.39 578.433 173.988C558.034 140.141 533.055 118.36 500.446 96.9648L501.258 96.5919C502.869 96.2048 502.837 96.0463 503.565 94.7652C503.248 92.753 503.645 93.6594 502.119 92.0544L502.354 91.2743Z"/><path fill="#4CB3AF" transform="scale(1.9375 1.9375)" d="M500.446 96.9648C499.099 96.5022 483.236 87.9963 481.926 87.0663L482.419 86.8846C489.292 89.2818 495.071 92.8276 501.258 96.5919L500.446 96.9648Z"/><path fill="#4CB3AF" transform="scale(1.9375 1.9375)" d="M502.119 92.0544C497.926 89.686 491.68 87.4914 488.464 85.4363C492.811 85.7248 498.578 89.0154 502.354 91.2743L502.119 92.0544Z"/><path fill="#B54E17" transform="scale(1.9375 1.9375)" d="M417.215 384.341C421.333 382.35 424.457 382.08 428.881 382.958C428.871 386.967 427.262 387.297 424.102 389.37C451.098 411.219 478.241 414.977 512.143 410.812C566.968 404.078 621.307 388.2 677.072 393.079C686.268 393.881 695.581 395.676 704.687 397.354C711.023 398.599 712.667 398.453 718.296 395.948C717.908 400.374 717.742 401.328 715.151 405.134C704.19 407.697 689.592 403.047 678.496 401.948C626.332 396.778 574.405 411.344 523.059 418.13C492.647 422.15 464.552 424.102 436.964 408.003C429.731 403.782 424.612 399.628 418.073 394.618L417.266 394.925C415.89 396.909 413.064 401.384 410.342 400.48C407.191 395.633 413.812 387.406 417.215 384.341Z"/><path fill="#FBBB77" transform="scale(1.9375 1.9375)" d="M418.073 394.618C424.612 399.628 429.731 403.782 436.964 408.003C464.552 424.102 492.647 422.15 523.059 418.13C574.405 411.344 626.332 396.778 678.496 401.948C689.592 403.047 704.19 407.697 715.151 405.134C714.568 407.229 713.425 411.734 712.648 413.515C708.075 413.461 703.217 413.571 698.686 413.088C690.742 412.242 682.779 410.782 674.816 410.131C659.904 409.055 644.927 409.276 630.053 410.791C584.741 415.052 539.929 427.938 494.702 429.296C468.871 430.072 442.127 423.182 423.776 404.46C420.694 401.315 418.115 399.068 418.073 394.618Z"/><path fill="#DC6E30" transform="scale(1.9375 1.9375)" d="M881.284 489.261C889.694 491.716 893.023 495.571 892.451 504.608C888.846 519.444 880.444 529.196 868.524 538.578C854.271 545.337 848.714 547.511 833.402 541.321C833.849 540.322 834.376 539.825 835.495 539.551C854.139 534.99 872.098 525.963 879.365 507.039C880.423 504.285 881.792 497.734 883.446 496.085L881.678 495.602C881.253 493.233 880.725 491.577 881.284 489.261Z"/><path fill="#F59A54" transform="scale(1.9375 1.9375)" d="M881.284 489.261C889.694 491.716 893.023 495.571 892.451 504.608C892.313 503.958 892.146 503.314 891.952 502.678C890.898 499.273 886.399 497.478 883.446 496.085L881.678 495.602C881.253 493.233 880.725 491.577 881.284 489.261Z"/><path fill="#FBBB77" transform="scale(1.9375 1.9375)" d="M690.325 300.991C691.405 307.062 693.496 321.138 696.546 326.146C697.146 331.34 702.495 342.893 705.362 347.38L707.572 351.368C708.546 353.203 710.406 357.053 711.705 358.419C718.272 372.936 720.993 380.06 718.296 395.948C712.667 398.453 711.023 398.599 704.687 397.354C705.349 395.26 708.207 387.708 708.281 385.958C709.258 362.949 695.334 341.207 691.046 318.861C690.135 314.113 687.765 305.022 690.325 300.991Z"/><path fill="#FBBB77" transform="scale(1.9375 1.9375)" d="M762.224 535.736C763.32 534.437 763.719 534.065 763.757 532.253C764.1 515.918 764.599 499.029 769.993 483.432C773.133 474.352 781.208 459.753 793.008 465.024C796.671 466.66 798.487 470.474 799.857 474.022C788.394 468.846 781.932 472.952 777.315 484.573C771.278 499.766 770.511 516.93 766.941 532.746C766.62 534.229 765.755 535.847 764.45 536.709C762.87 536.566 763.636 536.756 762.224 535.736Z"/><path fill="#F59A54" transform="scale(1.9375 1.9375)" d="M417.215 384.341C416.23 383.65 416.268 383.683 415.22 383.157C409.389 383.057 406.492 386.582 401.243 388.33C399.302 388.976 396.314 388.477 394.311 389.764L394.374 391.696L393.992 391.519C387.313 362.75 439.62 362.804 428.881 382.958C424.457 382.08 421.333 382.35 417.215 384.341Z"/><path fill="#FBBB77" transform="scale(1.9375 1.9375)" d="M868.524 538.578C878.295 536.491 891.247 533.559 892.817 547.108C892.51 547.999 892.769 547.626 892.037 548.225C881.267 541.132 874.57 545.495 863.483 548.929C855.007 551.555 836.201 552.425 833.402 541.321C848.714 547.511 854.271 545.337 868.524 538.578Z"/><path fill="#FBBB77" transform="scale(1.9375 1.9375)" d="M827.923 516.551C834.883 514.921 841.611 513.121 847.707 509.216C860.609 500.952 864.881 490.707 881.284 489.261C880.725 491.577 881.253 493.233 881.678 495.602C870.385 499.465 864.752 504.697 855.108 511.326C849.612 515.104 833.582 521.456 827.923 516.551Z"/><path fill="#DC6E30" transform="scale(1.9375 1.9375)" d="M471.346 236.679C511.367 234.321 545.679 264.945 547.869 304.975C550.058 345.005 519.291 379.189 479.252 381.211C439.45 383.22 405.512 352.674 403.336 312.881C401.159 273.088 431.562 239.022 471.346 236.679Z"/><defs><linearGradient id="gradient_3" gradientUnits="userSpaceOnUse" x1="472.94525" y1="360.52774" x2="477.96753" y2="246.06439"><stop offset="0" stop-color="#C8DCDD"/><stop offset="1" stop-color="white"/></linearGradient></defs><path fill="url(#gradient_3)" transform="scale(1.9375 1.9375)" d="M428.394 351.937C417.895 341.924 411.767 324.455 411.517 310.172C411.231 293.858 417.92 276.734 429.321 265.047C441.205 252.723 457.528 245.67 474.648 245.464C491.643 245.24 508.02 251.829 520.123 263.762C532.667 276.193 539.149 291.534 539.231 309.227C539.24 326.126 532.52 342.333 520.557 354.269C516.65 358.193 512.12 361.808 507.203 364.385C507.094 364.489 506.986 364.594 506.878 364.699C486.624 376.791 458.99 375.221 439.676 362.024C434.934 358.784 431.268 355.7 428.394 351.937Z"/><g class="left-pupil"><path fill="#1E1813" transform="scale(1.9375 1.9375)" d="M493.943 275.229C508.715 276.101 518.39 283.375 524.106 296.971C537.409 328.614 505.891 368.743 473.195 343.39C457.551 329.436 456.927 309.565 466.063 291.757C466.86 295.386 467.373 298.251 469.684 301.342C476.249 310.124 489.905 303.5 490.287 293.583C490.4 290.665 489.531 287.663 487.406 285.541C483.651 281.792 479.508 281.566 474.578 281.531C481.986 277.034 485.321 275.703 493.943 275.229Z"/></g><path fill="#3E3735" transform="scale(1.9375 1.9375)" d="M509.626 324.461C525.122 325.125 516.318 338.974 505.61 342.531C488.63 342.464 501.226 328.585 509.626 324.461Z"/><path fill="#DC6E30" transform="scale(1.9375 1.9375)" d="M439.3 88.2088C449.052 87.064 466.339 94.4122 474.84 98.7936C510.445 117.142 545.698 151.532 557.863 190.401L552.028 182.606C525.638 145.305 495.484 110.451 450.308 95.9682C445.079 94.2921 426.712 94.1004 425.298 92.9127L425.594 91.9509C429.112 88.8279 434.671 88.6845 439.3 88.2088Z"/><path fill="#DC6E30" transform="scale(1.9375 1.9375)" d="M376.43 308.036C392.931 310.307 386.638 330.838 378.766 339.376C378.394 339.391 378.021 339.398 377.648 339.398C363.452 339.333 368.653 315.178 376.43 308.036Z"/><path fill="#DC6E30" transform="scale(1.9375 1.9375)" d="M795.118 539.658C795.53 539.634 795.943 539.615 796.356 539.603C805.543 539.331 815.525 541.382 822.365 547.951C824.368 549.875 827.205 552.66 827.248 555.412L826.319 555.895C822.128 555.779 816.726 551.652 812.873 549.319C791.914 540.67 788.79 552.678 780.439 551.614L779.991 550.842C780.714 544.984 789.999 541.044 795.118 539.658Z"/><path fill="#B54E17" transform="scale(1.9375 1.9375)" d="M610.758 352.93C619.021 353.909 631.998 366.172 623.281 371.462C616.541 367.202 600.625 361.595 610.758 352.93Z"/><path fill="#DC6E30" transform="scale(1.9375 1.9375)" d="M391.928 339.439C401.868 340.54 401.53 352.163 394.005 357.794C384.378 356.516 383.448 345.014 391.928 339.439Z"/><path fill="#B54E17" transform="scale(1.9375 1.9375)" d="M679.456 349.432C682.371 349.265 684.229 349.187 685.89 351.812C686.378 356.707 680.073 363.206 676.898 367.152C675.774 368.29 675.153 368.735 673.618 368.333C669.493 362.784 674.982 353.456 679.456 349.432Z"/><path fill="#F59A54" transform="scale(1.9375 1.9375)" d="M541.954 218.69C543.765 211.038 549.368 211.726 552.955 217.302L553.082 218.719L553.806 219.508C554.933 231.174 536.989 225.262 541.954 218.69Z"/><path fill="#EC853F" transform="scale(1.9375 1.9375)" d="M553.082 218.719L553.806 219.508C554.933 231.174 536.989 225.262 541.954 218.69C546.838 221.859 548.267 223.019 553.082 218.719Z"/><path fill="#DC6E30" transform="scale(1.9375 1.9375)" d="M375.577 352.791C384.551 355.227 381.961 362.042 378.162 367.942C369.74 365.51 371.158 358.579 375.577 352.791Z"/><path fill="#DC6E30" transform="scale(1.9375 1.9375)" d="M387.822 287.893C395.765 288.705 394.304 293.544 390.582 298.377C382.617 297.782 384.381 292.54 387.822 287.893Z"/><path fill="#EC853F" transform="scale(1.9375 1.9375)" d="M558.733 233.141C561.697 233.899 563.988 238.68 567.616 239.486C570.902 240.216 573.571 236.984 575.68 237.523L575.663 239.217C569.307 247.08 560.735 242.273 558.733 233.141Z"/><path fill="#FBBB77" transform="scale(1.9375 1.9375)" d="M563.264 224.899C566.975 224.912 576.125 226.562 573.83 232.058C569.955 231.712 565.021 231.772 562.625 228.342C562.242 226.205 562.19 227.068 563.264 224.899Z"/><path fill="#F59A54" transform="scale(1.9375 1.9375)" d="M365.443 376.109C368.925 390.889 370.663 396.595 375.715 410.612C392.818 454.765 444.04 491.483 486.02 510.44C528.768 529.743 590.497 540.055 633.054 515.775C635.752 523.524 637.483 532.794 639.583 540.812C644.487 559.541 648.239 578.789 653.307 597.432C655.88 613.307 658.919 629.885 659.783 645.94C661.38 669.026 658.349 692.198 650.869 714.096C649.956 716.728 647.007 724.526 645.681 726.801C642.82 730.35 641.482 734.175 639.093 737.595C638.287 738.699 637.514 739.403 638.275 740.879C636.119 743.792 633.905 746.735 631.849 749.716C611.279 779.532 578.563 798.069 543.081 803.459C533.301 804.954 523.392 805.425 513.514 804.861C508.666 804.577 494.259 802.847 490.632 803.49C486.16 800.305 479.713 799.547 474.578 797.623C463.782 819.743 462.301 837.352 470.515 861.22C472.604 867.333 475.171 873.272 478.194 878.981C481.256 884.67 485.309 891.081 487.631 897.001C491.392 931.176 457.377 921.813 435.912 926.241C429.062 927.654 420.68 930.633 413.872 932.682C397.551 937.596 368.104 955.94 367.966 924.958C351.663 924.654 348.78 916.116 354.368 901.872C355.145 901.096 355.942 900.341 356.758 899.608C370.255 887.56 400.259 880.386 417.577 881.407C401.95 854.997 395.125 815.364 398.418 785.228C398.966 780.212 399.991 773.019 401.702 768.319C380.291 761.814 392.219 759.348 382.231 748.407C378.369 747.013 372.844 745.953 369.732 744.512C363.541 741.646 366.135 732.733 364.368 727.365C362.264 720.974 354.418 722.792 349.632 720.374C341.412 716.276 349.464 704.817 347.081 699.192C344.348 692.738 332.092 694.773 329.46 686.883C327.204 680.118 333.868 674.006 332.827 667.947C331.7 661.391 319.619 661.767 317.744 655.208C315.946 648.993 320.104 641.656 322.793 636.315C298.461 630.247 282.994 621.273 260.248 613.279C259.404 613.651 258.553 614.005 257.694 614.341C230.646 625.011 199.681 627.536 172.576 615.742C161.622 610.976 146.154 602.265 152.536 588.042C152.726 587.718 152.924 587.397 153.128 587.081C159.881 576.723 180.74 588.565 193.525 585.94C189.073 583.902 184.711 581.675 180.451 579.263C167.348 571.75 152.521 560.778 148.237 545.432C145.534 535.749 150.756 531.978 159.597 530.308C178.814 529.557 189.249 552.246 209.614 552.419C216.583 552.478 229.372 552.872 235.009 548.538C240.568 544.264 225.846 531.152 224.787 526.427C222.347 519.287 222.05 517.629 221.831 509.781C222.687 502.74 225.461 495.266 234.488 496.197C243.163 497.092 248.586 509.886 253.704 514.359C270.223 528.795 274.585 533.267 280.584 554.362C287.384 558.063 297.449 563.439 304.56 566.333C308.27 559.946 313.982 554.576 316.497 548.213C313.04 540.634 305.902 538.387 305.084 530.289C304.215 521.689 314.68 518.548 318.669 513.565C323.562 507.451 312.055 499.764 311.854 492.871C311.532 481.848 324.982 481.535 330.089 475.632C332.95 472.325 324.667 463.338 323.696 459.505C322.664 456.435 322.857 454.178 324.334 451.21C327.351 445.147 339.362 446.511 341.959 441.399C343.574 437.103 339.123 431.753 338.016 428.123C333.88 414.564 344.535 413.98 353.504 411.408C364.507 408.253 349.841 388.972 355.181 381.827C358.216 377.767 360.797 377.234 365.443 376.109Z"/><defs><linearGradient id="gradient_4" gradientUnits="userSpaceOnUse" x1="438.62518" y1="558.04883" x2="298.1225" y2="909.35321"><stop offset="0" stop-color="#DA6A30"/><stop offset="1" stop-color="#F18D46"/></linearGradient></defs><path fill="url(#gradient_4)" transform="scale(1.9375 1.9375)" d="M417.629 547.079C416.928 553.73 414.58 561.766 413.08 568.451C409.995 582.195 406.479 595.97 402.419 609.45C400.074 617.443 390.398 639.557 390.118 645.873C389.679 655.784 399.22 680.463 404.172 689.868C405.904 693.157 415.065 706.863 417.505 710.222C419.031 713.804 423.481 718.145 426.24 720.947C440.066 734.989 456.228 746.318 474.552 753.748C482.881 757.126 503.876 763.736 512.732 761.997C562.224 766.236 607.59 745.818 635.543 704.25C645.982 688.726 652.792 673.761 656.521 655.312C657.142 652.241 658.027 648.536 659.783 645.94C661.38 669.026 658.349 692.198 650.869 714.096C649.956 716.728 647.007 724.526 645.681 726.801C642.82 730.35 641.482 734.175 639.093 737.595C638.287 738.699 637.514 739.403 638.275 740.879C636.119 743.792 633.905 746.735 631.849 749.716C611.279 779.532 578.563 798.069 543.081 803.459C533.301 804.954 523.392 805.425 513.514 804.861C508.666 804.577 494.259 802.847 490.632 803.49C486.16 800.305 479.713 799.547 474.578 797.623C463.782 819.743 462.301 837.352 470.515 861.22C472.604 867.333 475.171 873.272 478.194 878.981C481.256 884.67 485.309 891.081 487.631 897.001C491.392 931.176 457.377 921.813 435.912 926.241C429.062 927.654 420.68 930.633 413.872 932.682C397.551 937.596 368.104 955.94 367.966 924.958C351.663 924.654 348.78 916.116 354.368 901.872C355.145 901.096 355.942 900.341 356.758 899.608C370.255 887.56 400.259 880.386 417.577 881.407C401.95 854.997 395.125 815.364 398.418 785.228C398.966 780.212 399.991 773.019 401.702 768.319C380.291 761.814 392.219 759.348 382.231 748.407C378.369 747.013 372.844 745.953 369.732 744.512C363.541 741.646 366.135 732.733 364.368 727.365C362.264 720.974 354.418 722.792 349.632 720.374C341.412 716.276 349.464 704.817 347.081 699.192C344.348 692.738 332.092 694.773 329.46 686.883C327.204 680.118 333.868 674.006 332.827 667.947C331.7 661.391 319.619 661.767 317.744 655.208C315.946 648.993 320.104 641.656 322.793 636.315C298.461 630.247 282.994 621.273 260.248 613.279C259.404 613.651 258.553 614.005 257.694 614.341C230.646 625.011 199.681 627.536 172.576 615.742C161.622 610.976 146.154 602.265 152.536 588.042C155.743 588.182 157.687 586.437 162.146 586.796C163.563 592.908 164.643 598.574 170.592 602.078C187.901 612.271 208.83 613.445 228.042 608.751C240.324 605.741 251.694 600.685 263.675 597.67C290.648 605.666 329.666 630.199 356.753 614.581C376.815 603.013 404.558 566.077 417.629 547.079Z"/><path fill="#2BA29F" transform="scale(1.9375 1.9375)" d="M322.793 636.315C327.342 636.869 331.881 637.5 336.409 638.209C344.735 673.651 362.442 718.181 388.911 743.984C393.915 750.24 398.359 754.81 403.961 760.444C403.233 763.022 402.509 765.781 401.702 768.319C380.291 761.814 392.219 759.348 382.231 748.407C378.369 747.013 372.844 745.953 369.732 744.512C363.541 741.646 366.135 732.733 364.368 727.365C362.264 720.974 354.418 722.792 349.632 720.374C341.412 716.276 349.464 704.817 347.081 699.192C344.348 692.738 332.092 694.773 329.46 686.883C327.204 680.118 333.868 674.006 332.827 667.947C331.7 661.391 319.619 661.767 317.744 655.208C315.946 648.993 320.104 641.656 322.793 636.315Z"/><path fill="#F59A54" transform="scale(1.9375 1.9375)" d="M336.409 638.209C340.509 638.275 343.849 638.189 347.95 637.978C355.215 674.989 366.583 709.79 388.265 740.858C388.849 741.695 389.002 742.991 388.911 743.984C362.442 718.181 344.735 673.651 336.409 638.209Z"/><path fill="#DC6E30" transform="scale(1.9375 1.9375)" d="M406.633 809.318C417.752 810.754 414.5 823.059 411.459 830.232C401.172 828.302 402.619 816.346 406.633 809.318Z"/><path fill="#DC6E30" transform="scale(1.9375 1.9375)" d="M409.805 775.932C420.779 776.469 414.506 788.321 410.954 793.451C407.039 793.584 404.594 789.715 404.919 786.047C405.364 781.028 406.205 779.338 409.805 775.932Z"/><path fill="#DC6E30" transform="scale(1.9375 1.9375)" d="M418.506 798.8C427.519 799.203 424.774 806.473 421.85 811.687C413.868 810.251 415.519 804.184 418.506 798.8Z"/><path fill="#DC6E30" transform="scale(1.9375 1.9375)" d="M415.062 837.738C422.555 839.23 421.88 844.506 419.217 850.081C413.016 847.294 410.846 843.645 415.062 837.738Z"/><path fill="#DC6E30" transform="scale(1.9375 1.9375)" d="M424.726 819.298C432.643 819.807 429.996 826.646 427.576 831.064C420.362 830.796 422.635 823.354 424.726 819.298Z"/><path fill="#2BA29F" transform="scale(1.9375 1.9375)" d="M365.443 376.109C368.925 390.889 370.663 396.595 375.715 410.612C373.272 415.458 371.024 419.777 369.037 424.841C344.199 473.49 329.783 522.134 330.01 577.001C324.602 575.414 308.18 569.779 304.56 566.333C308.27 559.946 313.982 554.576 316.497 548.213C313.04 540.634 305.902 538.387 305.084 530.289C304.215 521.689 314.68 518.548 318.669 513.565C323.562 507.451 312.055 499.764 311.854 492.871C311.532 481.848 324.982 481.535 330.089 475.632C332.95 472.325 324.667 463.338 323.696 459.505C322.664 456.435 322.857 454.178 324.334 451.21C327.351 445.147 339.362 446.511 341.959 441.399C343.574 437.103 339.123 431.753 338.016 428.123C333.88 414.564 344.535 413.98 353.504 411.408C364.507 408.253 349.841 388.972 355.181 381.827C358.216 377.767 360.797 377.234 365.443 376.109Z"/><path fill="#FBBB77" transform="scale(1.9375 1.9375)" d="M330.01 577.001C329.783 522.134 344.199 473.49 369.037 424.841C372.86 431.659 374.392 447.363 371.876 455.033C369.585 462.018 366.954 468.919 364.361 475.835C360.912 484.921 357.839 494.145 355.15 503.484C351.114 517.598 348.233 532.017 346.534 546.598C345.501 554.951 344.894 564.233 343.739 572.359C350.314 564.187 354.1 558.848 360.33 550.178C372.188 533.676 383.767 512.088 398.19 498.223C402.366 494.209 411.334 491.817 416.984 491.209C418.777 491.016 420.576 490.886 422.377 490.819C414.347 493.507 406.633 496.343 400.259 502.137C382.144 518.603 360.338 584.097 336.736 586.29C324.711 587.408 302.121 576.859 291.119 571.364C286.159 568.888 281.382 566.219 276.748 563.167C275.663 558.399 274.514 552.175 273.084 547.755C269.132 536.049 258.121 528.538 249.526 520.425C244.537 515.716 240.778 510.287 235.054 506.411C229.455 502.621 226.402 507.705 221.831 509.781C222.687 502.74 225.461 495.266 234.488 496.197C243.163 497.092 248.586 509.886 253.704 514.359C270.223 528.795 274.585 533.267 280.584 554.362C287.384 558.063 297.449 563.439 304.56 566.333C308.18 569.779 324.602 575.414 330.01 577.001Z"/><path fill="#DC6E30" transform="scale(1.9375 1.9375)" d="M193.525 585.94C189.073 583.902 184.711 581.675 180.451 579.263C167.348 571.75 152.521 560.778 148.237 545.432C145.534 535.749 150.756 531.978 159.597 530.308C159.774 540.351 160.023 547.706 166.536 556.055C174.893 566.768 187.928 572.553 200.623 576.364C203.635 577.26 210.093 578.087 212.487 579.673C203.606 584.382 202.656 583.968 193.525 585.94Z"/><path fill="#EC853F" transform="scale(1.9375 1.9375)" d="M417.505 710.222C420.95 712.171 425.144 717.195 428.631 717.058C431.401 715.278 431.007 713.512 431.346 710.404C431.261 716.758 434.157 721.962 441.237 721.041C441.278 724.512 448.91 729.832 452.202 728.813C453.041 727.667 452.936 727.637 453.182 726.204C453.81 732.62 457.437 736.639 463.935 736.794C464.055 738.932 464.825 741.417 466.516 742.714C472.508 747.31 482.022 749.355 488.957 752.253C496.948 755.591 502.335 759.841 510.741 761.569L512.732 761.997C503.876 763.736 482.881 757.126 474.552 753.748C456.228 746.318 440.066 734.989 426.24 720.947C423.481 718.145 419.031 713.804 417.505 710.222Z"/><path fill="#FBBB77" transform="scale(1.9375 1.9375)" d="M212.487 579.673C212.294 582.098 210.898 583.646 208.884 585.196C201.781 590.658 193.177 593.522 184.257 592.675C176.56 591.944 169.24 587.62 162.146 586.796C157.687 586.437 155.743 588.182 152.536 588.042C152.726 587.718 152.924 587.397 153.128 587.081C159.881 576.723 180.74 588.565 193.525 585.94C202.656 583.968 203.606 584.382 212.487 579.673Z"/><path fill="#DC6E30" transform="scale(1.9375 1.9375)" d="M453.182 726.204C460.75 704.974 472.162 730.162 463.935 736.794C457.437 736.639 453.81 732.62 453.182 726.204Z"/><path fill="#DC6E30" transform="scale(1.9375 1.9375)" d="M431.346 710.404C432.15 708.626 432.195 708.243 433.793 707.058C440.365 705.171 445.965 714.128 441.237 721.041C434.157 721.962 431.261 716.758 431.346 710.404Z"/><path fill="#DC6E30" transform="scale(1.9375 1.9375)" d="M411.792 668.379C426.142 668.224 432.427 687.349 423.517 697.797C410.834 701.54 401.794 678.77 411.792 668.379Z"/><path fill="#DC6E30" transform="scale(1.9375 1.9375)" d="M406.038 634.4C414.082 634.538 415.559 641.387 414.649 648.129C413.816 654.306 411.983 656.997 407.357 660.615C393.902 660.608 396.058 641.138 406.038 634.4Z"/><path fill="#DC6E30" transform="scale(1.9375 1.9375)" d="M249.829 567.219C254.462 566.734 266.481 567.627 267.769 573.068C264.455 576.654 253.433 572.444 247.317 573.851C240.873 575.333 240.951 575.304 235.119 578.528C231.058 580.808 226.483 586.332 222.025 586.059L221.56 585.208C223.001 574.684 240.423 567.951 249.829 567.219Z"/><path fill="#FBBB77" transform="scale(1.9375 1.9375)" d="M402.693 508.521C405.694 508.467 407.551 508.274 409.522 510.798C411.371 516.425 404.557 522.734 400.36 525.615C385.128 525.401 396.446 512.935 402.693 508.521Z"/><path fill="#DC6E30" transform="scale(1.9375 1.9375)" d="M424.177 648.3C434.964 648.829 434.053 659.129 427.932 665.616C416.02 666.391 419.244 654.613 424.177 648.3Z"/><path fill="#FBBB77" transform="scale(1.9375 1.9375)" d="M292.212 577.502C298.504 577.729 306.527 579.732 301.568 587.624C296.638 587.122 286.36 583.877 292.212 577.502Z"/><path fill="#DC6E30" transform="scale(1.9375 1.9375)" d="M430.76 624.236C437.818 624.969 438.415 629.479 434.07 634.476C426.98 633.028 426.687 629.421 430.76 624.236Z"/><path fill="#DC6E30" transform="scale(1.9375 1.9375)" d="M424.315 587.79C426.82 587.556 429.045 589.386 429.3 591.889C429.554 594.391 427.744 596.632 425.243 596.907C422.712 597.186 420.44 595.349 420.182 592.816C419.924 590.284 421.781 588.026 424.315 587.79Z"/><path fill="#EC853F" transform="scale(1.9375 1.9375)" d="M416.844 603.796C423.599 605.692 419.349 611.698 416.432 614.724C409.112 612.688 413.406 606.998 416.844 603.796Z"/><path fill="#DC6E30" transform="scale(1.9375 1.9375)" d="M437.08 674.281C438.498 673.625 440.162 673.802 441.41 674.743C442.658 675.683 443.286 677.234 443.046 678.778C442.805 680.322 441.734 681.609 440.259 682.125C438.126 682.872 435.782 681.813 434.933 679.718C434.084 677.623 435.028 675.231 437.08 674.281Z"/><path fill="#FBBB77" transform="scale(1.9375 1.9375)" d="M410.639 527.424C413.197 528.51 413.745 528.647 413.985 531.487C412.661 534.542 411.24 535.098 408.228 536.594C406.966 536.253 406.927 536.116 405.744 535.461C403.251 531.627 407.637 529.014 410.639 527.424Z"/><path fill="#FBBB77" transform="scale(1.9375 1.9375)" d="M391.244 531.904C392.955 532.322 392.999 532.392 394.483 533.18C396.604 536.274 394.201 538.089 391.931 540.219C389.801 540.205 389.194 539.976 387.767 538.531C386.692 535.037 388.575 533.675 391.244 531.904Z"/><path fill="#FBBB77" transform="scale(1.9375 1.9375)" d="M316.468 588.887C319.665 589.111 322.374 589.459 323.563 592.714C323.378 594.494 322.827 594.801 321.575 596.097C318.771 595.879 315.733 595.507 314.755 592.44C315.086 590.119 314.886 590.921 316.468 588.887Z"/><path fill="#FBBB77" transform="scale(1.9375 1.9375)" d="M301.485 593.368C307.169 593.493 309.113 595.058 307.187 600.727C302.11 600.282 299.033 598.937 301.485 593.368Z"/><path fill="#FBBB77" transform="scale(1.9375 1.9375)" d="M444.706 559.258C446.669 558.865 448.584 560.123 449.002 562.081C449.421 564.039 448.188 565.97 446.235 566.414C444.949 566.707 443.606 566.285 442.718 565.309C441.83 564.334 441.535 562.957 441.947 561.704C442.359 560.451 443.413 559.516 444.706 559.258Z"/><path fill="#FBBB77" transform="scale(1.9375 1.9375)" d="M381.223 548.883C383.285 548.942 383.192 548.887 385.009 549.818C387.142 552.827 385.288 554.435 383.023 556.546C381.738 556.608 381.472 556.408 380.221 556.017C377.494 553.294 379.138 551.362 381.223 548.883Z"/><path fill="#FBBB77" transform="scale(1.9375 1.9375)" d="M416.947 508.448C419.646 508.397 421.597 508.266 422.589 511.162C422.344 513.1 421.806 513.472 420.557 514.967C417.654 515.347 415.711 515.618 414.912 512.348C415.315 510.282 415.567 510.147 416.947 508.448Z"/><path fill="#F59A54" transform="scale(1.9375 1.9375)" d="M798.056 741.218C822.405 749.624 830.421 716.545 814.987 712.925C811.759 713.336 810.148 716.568 809.423 719.414C805.435 735.068 792.464 725.772 793.459 713.508C794.554 700.012 807.266 693.102 819.452 694.229C827.413 694.944 834.748 698.845 839.79 705.048C846.214 712.992 848.476 723.847 847.28 733.851C845.878 745.046 840.094 755.229 831.194 762.164C820.264 770.721 804.453 774.341 791.113 772.35C756.919 767.247 737.276 733.622 742.798 700.795C746.271 680.146 754.054 665.238 770.744 652.818C788.666 639.651 811.048 634.061 833.056 637.253C878.474 644.016 908.087 684.748 910.339 728.641C910.553 732.818 910.69 736.387 910.053 740.537C909.401 760.62 901.847 783.359 891.075 800.215C854.486 857.472 777.23 881.274 712.535 879.194C699.452 878.842 686.398 877.774 673.432 875.995C660.953 874.271 648.491 871.829 636.218 870.09C634.235 874.079 633.287 876.541 631.777 880.762C650.938 881.735 679.763 886.719 694.301 901.075C694.458 901.23 694.802 901.736 694.961 901.961C697.106 907.878 697.925 909.98 697.349 916.349C692.698 924.28 689.197 924.766 680.652 924.348C681.654 935.114 677.649 944.33 665.123 942.132C653.817 940.149 642.878 934.692 631.955 931.151C617.101 926.06 601.71 924.648 586.153 923.845C567.565 922.886 559.006 916.243 561.17 897.084C564.26 889.29 568.939 881.753 572.635 874.173C575.993 867.286 577.898 861.349 580.1 854.133C543.511 840.147 520.875 829.093 490.632 803.49C494.259 802.847 508.666 804.577 513.514 804.861C523.392 805.425 533.301 804.954 543.081 803.459C578.563 798.069 611.279 779.532 631.849 749.716C633.905 746.735 636.119 743.792 638.275 740.879C637.514 739.403 638.287 738.699 639.093 737.595C641.482 734.175 642.82 730.35 645.681 726.801C652.314 739.921 664.401 725.994 669.756 741.353C669.304 743.853 667.575 750.779 669.191 752.841C673.369 757.991 682.204 752.18 686.589 757.181C688.277 759.106 688.924 763.497 689.056 766.022C689.772 779.743 701.641 766.73 707.814 773.35C711.13 776.906 709.701 785.744 715.584 787.149C719.947 787.614 727.225 780.096 732.038 785.787C734.997 789.286 736.666 793.601 739.394 797.44C744.985 793.701 746.51 791.913 753.136 791.011C759.012 794.176 759.382 796.344 763.868 800.647C775.883 791.761 775.576 790.694 787.934 799.38C791.144 796.049 792.945 793.805 796.893 791.455C798.765 792.115 801.731 793.292 803.569 793.688C814.717 796.09 809.46 785.271 822.205 787.202C823.24 787.361 824.273 787.53 825.305 787.71C826.91 785.128 828.652 782.085 830.652 779.846C834.022 778.803 836.984 778.195 840.22 777.256C840.617 776.252 842.392 771.801 842.844 771.202C848.076 764.263 851.586 764.383 856.009 756.199L857.238 753.217C862.063 740.465 862.561 729.063 859.653 714.82C852.661 680.565 805.366 664.813 785.163 696.528C780.877 704.127 779.192 714.13 781.608 722.524C784.323 731.956 789.983 736.824 798.056 741.218Z"/><defs><linearGradient id="gradient_5" gradientUnits="userSpaceOnUse" x1="629.62213" y1="740.1792" x2="576.22961" y2="921.42035"><stop offset="0" stop-color="#C8521B"/><stop offset="1" stop-color="#E47737"/></linearGradient></defs><path fill="url(#gradient_5)" transform="scale(1.9375 1.9375)" d="M638.275 740.879C641.026 747.879 644.789 757.845 645.993 765.131C632.495 777.599 618.633 791.647 606.65 805.514C602.78 813.489 603.869 823.242 602.77 831.835C600.584 849.235 591.776 866.549 584.884 882.36C577.464 899.386 586.107 908.482 602.755 909.933C622.529 911.599 640.205 920.509 658.232 927.722C666.842 931.168 678.285 927.601 673.93 918.396C669.447 908.92 647.599 901.787 639.394 896.893C657.083 897.747 664.769 901.712 680.457 909.709C685.579 912.32 691.661 915.398 697.349 916.349C692.698 924.28 689.197 924.766 680.652 924.348C681.654 935.114 677.649 944.33 665.123 942.132C653.817 940.149 642.878 934.692 631.955 931.151C617.101 926.06 601.71 924.648 586.153 923.845C567.565 922.886 559.006 916.243 561.17 897.084C564.26 889.29 568.939 881.753 572.635 874.173C575.993 867.286 577.898 861.349 580.1 854.133C543.511 840.147 520.875 829.093 490.632 803.49C494.259 802.847 508.666 804.577 513.514 804.861C523.392 805.425 533.301 804.954 543.081 803.459C578.563 798.069 611.279 779.532 631.849 749.716C633.905 746.735 636.119 743.792 638.275 740.879Z"/><path fill="#DC6E30" transform="scale(1.9375 1.9375)" d="M647.837 833.557C659.653 837.477 670.638 842.128 682.934 845.855C767.345 871.446 875.906 839.827 905.661 749.637C907.055 745.412 907.461 742.526 909.234 738.248L910.053 740.537C909.401 760.62 901.847 783.359 891.075 800.215C854.486 857.472 777.23 881.274 712.535 879.194C699.452 878.842 686.398 877.774 673.432 875.995C660.953 874.271 648.491 871.829 636.218 870.09C641.257 861.126 645.41 843.738 647.837 833.557Z"/><path fill="#2BA29F" transform="scale(1.9375 1.9375)" d="M639.093 737.595C641.482 734.175 642.82 730.35 645.681 726.801C652.314 739.921 664.401 725.994 669.756 741.353C669.304 743.853 667.575 750.779 669.191 752.841C673.369 757.991 682.204 752.18 686.589 757.181C688.277 759.106 688.924 763.497 689.056 766.022C689.772 779.743 701.641 766.73 707.814 773.35C711.13 776.906 709.701 785.744 715.584 787.149C719.947 787.614 727.225 780.096 732.038 785.787C734.997 789.286 736.666 793.601 739.394 797.44C744.985 793.701 746.51 791.913 753.136 791.011C759.012 794.176 759.382 796.344 763.868 800.647C775.883 791.761 775.576 790.694 787.934 799.38C791.144 796.049 792.945 793.805 796.893 791.455C798.765 792.115 801.731 793.292 803.569 793.688C814.717 796.09 809.46 785.271 822.205 787.202C823.24 787.361 824.273 787.53 825.305 787.71C826.91 785.128 828.652 782.085 830.652 779.846C834.022 778.803 836.984 778.195 840.22 777.256C840.617 776.252 842.392 771.801 842.844 771.202C848.076 764.263 851.586 764.383 856.009 756.199C856.799 759.3 856.957 760.645 857.286 763.792C856.251 765.871 855.475 767.597 854.128 769.504C852.071 772.05 850.113 774.428 847.955 776.871C828.532 798.857 803.83 808.398 774.806 809.719C740.499 811.28 707.114 799.936 679.54 779.721C671.274 773.661 664.356 767.308 656.748 760.46C649.956 752.831 645.037 745.87 639.093 737.595Z"/><path fill="#DC6E30" transform="scale(1.9375 1.9375)" d="M798.056 741.218C794.79 742.851 790.056 740.701 787.115 739.043C779.731 734.88 775.166 727.468 773.085 719.421C770.321 708.738 771.963 697.392 777.642 687.931C783.753 677.703 794.524 670.227 806.044 667.435C818.948 664.262 832.585 666.383 843.915 673.326C870.576 689.945 878.251 730.121 861.717 756.345C860.804 757.793 859.906 759.174 858.708 760.404L857.946 760.27C857.056 757.385 857.895 755.858 857.238 753.217C862.063 740.465 862.561 729.063 859.653 714.82C852.661 680.565 805.366 664.813 785.163 696.528C780.877 704.127 779.192 714.13 781.608 722.524C784.323 731.956 789.983 736.824 798.056 741.218Z"/><path fill="#FBBB77" transform="scale(1.9375 1.9375)" d="M656.748 760.46C664.356 767.308 671.274 773.661 679.54 779.721C707.114 799.936 740.499 811.28 774.806 809.719C803.83 808.398 828.532 798.857 847.955 776.871C850.113 774.428 852.071 772.05 854.128 769.504C853.669 774.828 849.683 779.476 846.587 783.573C808.617 833.813 727.477 827.279 682.543 790.647C676.247 785.514 657.621 768.293 656.748 760.46Z"/><path fill="#DC6E30" transform="scale(1.9375 1.9375)" d="M683.233 800.937C691.285 802.303 707.049 813.549 695.367 820.686C684.913 820.254 670.441 808.704 683.233 800.937Z"/><path fill="#DC6E30" transform="scale(1.9375 1.9375)" d="M638.284 810.447C648.103 813.152 644.55 825.731 638.613 831.089C629.549 826.516 630.813 816.087 638.284 810.447Z"/><path fill="#DC6E30" transform="scale(1.9375 1.9375)" d="M709.521 819.499C715.57 819.209 724.612 822.091 718.688 829.479C716.2 829.605 713.716 829.148 711.436 828.144C706.829 826.122 706.776 823.256 709.521 819.499Z"/><path fill="#DC6E30" transform="scale(1.9375 1.9375)" d="M625.322 799.91C634.371 801.884 632.821 807.971 628.715 814.201C621.549 811.881 621.063 805.397 625.322 799.91Z"/><path fill="#DC6E30" transform="scale(1.9375 1.9375)" d="M622.233 824.394C630.008 826.16 627.568 832.546 624.37 837.353C616.175 835.574 618.179 829.34 622.233 824.394Z"/><path fill="#DC6E30" transform="scale(1.9375 1.9375)" d="M682.043 824.293C688.373 824.985 692.769 827.973 688.191 834.38C680.979 833.696 677.154 831.44 682.043 824.293Z"/><path fill="#DC6E30" transform="scale(1.9375 1.9375)" d="M631.58 840.795C640.657 841.707 635.658 849.096 632.755 853.298C624.226 853.518 629.389 844.392 631.58 840.795Z"/><path fill="#DC6E30" transform="scale(1.9375 1.9375)" d="M637.861 792.943C640.569 793.063 641.509 793.159 642.919 795.54C643.199 799.025 642.059 800.074 639.974 802.85C633.911 800.728 632.651 797.209 637.861 792.943Z"/><path fill="#DC6E30" transform="scale(1.9375 1.9375)" d="M662.205 781.601C667.298 783.527 668.457 786.135 665.534 790.881C658.996 792.017 660.367 785.26 662.205 781.601Z"/><path fill="#DC6E30" transform="scale(1.9375 1.9375)" d="M666.589 804.762C668.464 804.466 670.243 805.685 670.644 807.541C671.045 809.396 669.928 811.241 668.098 811.745C666.82 812.098 665.451 811.714 664.542 810.749C663.633 809.783 663.332 808.393 663.762 807.138C664.191 805.884 665.279 804.969 666.589 804.762Z"/><defs><linearGradient id="gradient_6" gradientUnits="userSpaceOnUse" x1="685.53857" y1="338.22842" x2="721.36401" y2="254.65849"><stop offset="0" stop-color="#BFDDE1"/><stop offset="1" stop-color="white"/></linearGradient></defs><path fill="url(#gradient_6)" transform="scale(1.9375 1.9375)" d="M687.766 232.427C694.945 234.088 700.177 235.505 706.894 238.957C746.509 259.313 754.52 315.768 724.286 347.667C720.656 351.498 715.927 355.165 711.705 358.419C710.406 357.053 708.546 353.203 707.572 351.368L705.362 347.38C702.495 342.893 697.146 331.34 696.546 326.146C693.496 321.138 691.405 307.062 690.325 300.991C690.471 298.658 689.831 294.862 689.518 292.431C689.414 288.801 688.856 283.11 689.519 279.878C688.909 278.719 688.733 243.651 688.832 240.704C688.447 239.346 687.956 234.121 687.766 232.427Z"/><g class="right-pupil"><path fill="#1E1813" transform="scale(1.9375 1.9375)" d="M689.519 279.878C716.262 255.607 732.992 289.536 724.905 314.571C723.458 317.819 722.557 320.147 719.91 322.656C711.928 330.054 706.272 330.744 696.546 326.146C693.496 321.138 691.405 307.062 690.325 300.991C690.471 298.658 689.831 294.862 689.518 292.431C689.414 288.801 688.856 283.11 689.519 279.878Z"/></g><path fill="#3E3735" transform="scale(1.9375 1.9375)" d="M719.91 322.656L719.236 321.988C716.187 320.824 715.581 324.392 711.222 321.822C707.957 317.201 712.83 309.551 718.436 310.204C721.984 310.618 722.698 312.097 724.905 314.571C723.458 317.819 722.557 320.147 719.91 322.656Z"/><path fill="white" transform="scale(1.9375 1.9375)" d="M697.839 274.953C701.186 274.918 704.658 275.382 707.14 277.89C708.727 279.477 709.536 281.682 709.351 283.919C709.059 287.807 706.744 290.069 703.986 292.443C691.166 293.06 688.467 282.307 697.839 274.953Z"/><path fill="#DC6E30" transform="scale(1.9375 1.9375)" d="M687.766 232.427C694.945 234.088 700.177 235.505 706.894 238.957C746.509 259.313 754.52 315.768 724.286 347.667C720.656 351.498 715.927 355.165 711.705 358.419C710.406 357.053 708.546 353.203 707.572 351.368C709.083 350.328 710.881 349.247 712.045 347.872C720.688 342.51 727.881 331.052 731.076 321.535C736.682 304.7 735.322 286.323 727.3 270.496C718.533 253.202 706.483 246.396 688.832 240.704C688.447 239.346 687.956 234.121 687.766 232.427Z"/><path fill="#C5D9DC" transform="scale(1.9375 1.9375)" d="M705.362 347.38C707.996 347.214 710.356 348.084 712.045 347.872C710.881 349.247 709.083 350.328 707.572 351.368L705.362 347.38Z"/></svg>